<svg width="55" height="9" viewBox="0 0 55 9" fill="none" xmlns="http://www.w3.org/2000/svg">
<path d="M1.00006 7.95349C1.61265 7.17133 4.21897 4.87131 7.66382 2.22776C8.76883 1.37978 8.76596 1.94294 8.61853 2.41388C7.93455 4.5988 6.88985 6.10166 6.74142 6.60982C6.46671 7.55027 8.78378 5.67672 12.0617 4.28002C15.0409 3.01066 17.9451 1.80869 18.2366 1.95275C20.0259 2.83697 16.897 5.62412 16.1361 7.27136C16.0369 7.48605 17.1703 6.86844 19.2672 5.65965C22.7037 3.67862 25.4902 2.63483 26.2478 2.30488C26.492 2.1985 26.5152 2.60067 26.4002 3.06849C25.8465 5.3217 24.8228 6.3643 24.5481 6.91389C24.128 7.75437 26.8393 5.70388 29.6947 3.96981C31.5741 2.82846 33.6309 1.81891 34.8648 1.12747C35.0862 1.0034 35.2742 0.923393 35.3448 1.11234C35.8509 2.46655 34.3261 3.65288 33.6533 4.83178C33.2924 5.46407 32.9136 5.93789 32.7892 6.13506C31.8604 7.60718 36.625 4.22492 39.3627 2.76575C40.4958 2.16185 41.733 1.69915 42.8061 1.24529C43.1744 1.08956 43.2648 1.49691 43.0589 2.08203C42.0497 4.95022 40.958 6.12413 40.1571 7.38868C39.4687 8.47568 42.282 5.7944 43.2251 5.22628C45.3792 3.92867 48.3218 2.23458 48.5436 2.15015C49.3192 1.85498 47.7968 4.02374 46.9411 5.59305C46.7349 5.97124 46.6386 6.29794 46.518 6.61243C46.3974 6.92693 46.2786 7.23673 46.5886 7.0804C48.7182 5.4802 49.7839 4.75913 50.8746 3.88283C51.5327 3.40067 52.4033 2.84245 53.4916 2.26266" stroke="#FFBA1A" stroke-width="2" stroke-linecap="round"/>
</svg>
