<svg width="13" height="3" viewBox="0 0 13 3" fill="none" xmlns="http://www.w3.org/2000/svg">
<path d="M10.8979 1.54972e-05C11.5978 1.54972e-05 12.1651 0.542823 12.1651 1.21241C12.1651 1.882 11.5978 2.4248 10.8979 2.4248C10.1981 2.4248 9.63074 1.882 9.63074 1.21241C9.63074 0.542823 10.1981 1.54972e-05 10.8979 1.54972e-05Z" fill="black"/>
<path d="M6.08256 1.54972e-05C6.78241 1.54972e-05 7.34975 0.542823 7.34975 1.21241C7.34975 1.882 6.78241 2.4248 6.08256 2.4248C5.38271 2.4248 4.81537 1.882 4.81537 1.21241C4.81537 0.542823 5.38271 1.54972e-05 6.08256 1.54972e-05Z" fill="black"/>
<path d="M1.26719 1.54972e-05C1.96704 1.54972e-05 2.53438 0.542823 2.53438 1.21241C2.53438 1.882 1.96704 2.4248 1.26719 2.4248C0.567341 2.4248 0 1.882 0 1.21241C0 0.542823 0.567341 1.54972e-05 1.26719 1.54972e-05Z" fill="black"/>
</svg>
